<?xml version="1.0"?>
<!DOCTYPE svg PUBLIC "-//W3C//DTD SVG 1.1//EN" "http://www.w3.org/Graphics/SVG/1.1/DTD/svg11.dtd">
<svg xmlns="http://www.w3.org/2000/svg" xmlns:xl="http://www.w3.org/1999/xlink" version="1.1" viewBox="206 154 80 75" width="80pt" height="75pt"><metadata xmlns:dc="http://purl.org/dc/elements/1.1/"><dc:date>2014-07-30 16:28Z</dc:date><!-- Produced by OmniGraffle Professional 5.4.4 --></metadata><defs><filter id="Shadow" filterUnits="userSpaceOnUse"><feGaussianBlur in="SourceAlpha" result="blur" stdDeviation="3.488"/><feOffset in="blur" result="offset" dx="0" dy="4"/><feFlood flood-color="black" flood-opacity=".75" result="flood"/><feComposite in="flood" in2="offset" operator="in"/></filter></defs><g stroke="none" stroke-opacity="1" stroke-dasharray="none" fill="none" fill-opacity="1"><title>Arbeitsfläche 1</title><g><title>Ebene 1</title><g><use xl:href="#id10_Graphic" filter="url(#Shadow)"/></g><g id="id10_Graphic"><path d="M 217 208.7 L 217 166.3 C 217 163.3744 229.79884 161 245.56885 161 C 261.33886 161 274.1377 163.3744 274.1377 166.3 L 274.1377 208.7 C 274.1377 211.6256 261.33886 214 245.56885 214 C 229.79884 214 217 211.6256 217 208.7" fill="white"/><path d="M 217 208.7 L 217 166.3 C 217 163.3744 229.79884 161 245.56885 161 C 261.33886 161 274.1377 163.3744 274.1377 166.3 L 274.1377 208.7 C 274.1377 211.6256 261.33886 214 245.56885 214 C 229.79884 214 217 211.6256 217 208.7 M 217 166.3 C 217 169.2256 229.79884 171.6 245.56885 171.6 C 261.33886 171.6 274.1377 169.2256 274.1377 166.3" stroke="black" stroke-linecap="round" stroke-linejoin="round" stroke-width="1"/></g></g></g></svg>
